<?xml version="1.0" encoding="UTF-8"?>
<svg version="1.1" xmlns="http://www.w3.org/2000/svg" width="500" height="500">
<path d="M0 0 C119.46 0 238.92 0 362 0 C362 132 362 264 362 400 C242.54 400 123.08 400 0 400 C0 268 0 136 0 0 Z " fill="#FEFEFE" transform="translate(69,50)"/>
<path d="M0 0 C118.8 0 237.6 0 360 0 C360 14.85 360 29.7 360 45 C275.52 45 191.04 45 104 45 C104 67.77 104 90.54 104 114 C131.39 114 158.78 114 187 114 C187.16121214 147.2097002 187.16121214 147.2097002 187.1953125 161.20703125 C187.21897736 170.84302358 187.24668217 180.47887523 187.30175781 190.11474609 C187.34186327 197.13487696 187.36748862 204.15489287 187.37635398 211.17513514 C187.38152903 214.88585822 187.39352732 218.59625268 187.42292023 222.30686951 C187.73088029 262.76579831 187.73088029 262.76579831 175.9609375 275.14453125 C167.97492968 282.76005417 160.88821645 284.50824477 150.125 284.375 C148.73087891 284.39240234 148.73087891 284.39240234 147.30859375 284.41015625 C131.267274 284.34303776 118.58461938 276.61474427 107 266 C103.34263164 262.27696973 100.19745574 258.76290647 98 254 C92.73629995 258.14376387 88.64712217 262.66617698 84.50390625 267.92578125 C81.13502117 272.06199429 77.5440959 276.01289212 74 280 C49.58 280 25.16 280 0 280 C0 187.6 0 95.2 0 0 Z " fill="#12234F" transform="translate(70,51)"/>
<path d="M0 0 C3.42764019 1.33521802 6.43273285 2.77097551 9.52734375 4.765625 C10.39037109 5.31863281 11.25339844 5.87164062 12.14257812 6.44140625 C13.06490234 7.03824219 13.98722656 7.63507813 14.9375 8.25 C16.92570967 9.52615319 18.91399296 10.8021917 20.90234375 12.078125 C21.9166748 12.73103516 22.93100586 13.38394531 23.97607422 14.05664062 C28.64030006 17.05415699 33.32031882 20.02669397 38 23 C43.55049173 26.52952061 49.09901444 30.06201666 54.640625 33.60546875 C55.58035156 34.20552734 56.52007812 34.80558594 57.48828125 35.42382812 C59.23137577 36.53699244 60.97367276 37.6514075 62.71484375 38.76757812 C63.53597656 39.29158203 64.35710937 39.81558594 65.203125 40.35546875 C66.02046679 40.90818545 66.83780857 41.46090216 67.67991829 42.03036785 C70.31965709 43.59638787 72.60416616 44.66549422 75.43176079 45.75977039 C80.70442496 48.01432706 85.35927378 50.46484751 89 55 C92.16658944 63.27855364 91.32438201 72.6499946 91.08930913 81.37293266 C91.01026925 85.06103627 91.03703915 88.74871665 91.05003166 92.4374361 C91.05957374 99.58671597 90.97676399 106.731902 90.86100774 113.88013165 C90.7310463 122.15441175 90.7170856 130.4262576 90.70288086 138.70178223 C90.6084968 160.53100068 90.35719412 182.35931243 90.125 204.1875 C89.75375 252.965625 89.3825 301.74375 89 352 C-13.63 352 -116.26 352 -222 352 C-222 322.63 -222 293.26 -222 263 C-220.35 264.65 -218.7 266.3 -217 268 C-197.0923466 287.54629335 -173.19341452 298.71843219 -146 304 C-145.1037793 304.18167725 -144.20755859 304.36335449 -143.28417969 304.55053711 C-135.20829174 306.06324731 -127.32935633 306.34780626 -119.125 306.3125 C-118.45080017 306.31067719 -117.77660034 306.30885437 -117.08197021 306.30697632 C-85.0696069 306.16213894 -53.29938466 299.33875922 -29.48828125 276.6015625 C0.7944772 244.82780236 -0.38485295 199.26523439 -0.39249516 158.47268701 C-0.38932464 152.88336693 -0.36362229 147.29414655 -0.34051514 141.70487976 C-0.30026392 131.16598825 -0.27968786 120.62715811 -0.26654124 110.0882017 C-0.25056539 98.07082108 -0.21210645 86.05354338 -0.17194796 74.03622305 C-0.08997256 49.35751677 -0.0356172 24.67881374 0 0 Z " fill="#F77B1B" transform="translate(342,97)"/>
<path d="M0 0 C119.46 0 238.92 0 362 0 C362 33.66 362 67.32 362 102 C358.68206293 100.67282517 356.12233651 99.59601543 353.171875 97.78515625 C352.46385742 97.35227295 351.75583984 96.91938965 351.02636719 96.47338867 C350.27516602 96.00779541 349.52396484 95.54220215 348.75 95.0625 C347.55745605 94.32833862 347.55745605 94.32833862 346.34082031 93.5793457 C339.67547674 89.45805158 333.09362037 85.21415558 326.52734375 80.9375 C318.69515802 75.84215382 310.79260039 70.85601471 302.90527344 65.84667969 C299.89624534 63.9340504 296.88926582 62.01823624 293.8828125 60.1015625 C292.88725342 59.46710205 291.89169434 58.8326416 290.8659668 58.17895508 C288.95828911 56.96309881 287.05088585 55.74681182 285.14379883 54.5300293 C284.28036865 53.98000244 283.41693848 53.42997559 282.52734375 52.86328125 C281.77187256 52.38157471 281.01640137 51.89986816 280.23803711 51.40356445 C277.84549839 49.90310573 275.42165747 48.45299448 273 47 C273 113.66 273 180.32 273 249 C272.67 249 272.34 249 272 249 C272 182.01 272 115.02 272 46 C301.37 46 330.74 46 361 46 C361 31.15 361 16.3 361 1 C242.2 1 123.4 1 1 1 C1 93.4 1 185.8 1 281 C25.42 281 49.84 281 75 281 C75 281.33 75 281.66 75 282 C50.25 282 25.5 282 0 282 C0 188.94 0 95.88 0 0 Z " fill="#E5E3E5" transform="translate(69,50)"/>
</svg>
